<svg xmlns="http://www.w3.org/2000/svg" viewBox="0 0 161 181.4"><g id="Warstwa_2" data-name="Warstwa 2"><g id="Warstwa_1-2" data-name="Warstwa 1"><path d="M160.9,48.4c1.3,13.2-9.6,61.4-58.8,52.2,0,0,11.3-10.3,24.3-23.5-13.8,3.3-29.1,16.5-29.1,16.5C101.1,72.2,116.1,52.1,160.9,48.4Z" fill="#8cc63e"/><path d="M82.4,90C60.9,70,57.5,27,80.6,0c32.7,22.6,37.3,59.9,10.5,89.3-1.8-4.6-1.9-19.7-5.6-39.8C77.4,69.8,82,90.9,82.4,90Z" fill="#8cc63e"/><path d="M39.2,75.8c10.2,5.9,20.7,11,32.6,13.2C60.9,49.3,28.7,45.4,0,54.9A61.8,61.8,0,0,0,48.7,97.1c5.3.9,12.4.4,18.3,0Z" fill="#8cc63e"/><path d="M12.3,123.3c16,7.3,39.4,5.3,48.6-10.8-7.2,1.2-19.8,2.7-19.9,2.4l19.4-7.4C43.1,94.3,22.8,99.8,12.3,123.3Z" fill="#8cc63e"/><path d="M131.1,112.4c-2.2-.9-9.9-3.8-13.2-5.3,13.9-6,29.1,1,33.6,9.5-10.2,11.3-28.8,7.3-34.8-5.2A57.9,57.9,0,0,0,131.1,112.4Z" fill="#8cc63e"/><path d="M86.9,93.3c3.3-6,5.4,16.4,9,17.1a6.8,6.8,0,0,0,4,.6c2.1-.3,6.5-4.4,10.1-7.5,1-.9,2-1.2,3.1-.4s-1.2,5.1-2.3,6.7c-13.2,16-11.3,40.8-10.7,44.9s.2,20.2,10.7,20.9c4.3.2,17.7.1,17.3,3.2-.2,1.1-1.2.9-3,.8-22.2-.7-44.6-3.5-66.6,1.7-2.2.4-3.6,0-2.6-1.1s4.3-2.1,14-3.5,12.3-1.1,13.1-7.8c1.6-11.3,1.7-19.6,1.7-31,1-15.4-14.7-14.9-19-24.2a1.1,1.1,0,0,1,1.4-1.5c2.6,1.1,5.2,2.5,7.8,3.7-3.1-4.8-12.5-11.2-10.9-14.5,3.6-1.4,11.9,8.4,13.5,9,0-5.2-7.5-15.1-5.7-15.7,6.1-1.2,9.6,13.9,13.8,13C87.8,106.9,85.9,95.6,86.9,93.3Z" fill="#377514"/></g></g></svg>
