<svg xmlns="http://www.w3.org/2000/svg" viewBox="0 0 161 181.44"><defs><style>.cls-1{fill:#8cc63e;}.cls-2{fill:#377514;}</style></defs><g id="Warstwa_2" data-name="Warstwa 2"><g id="Warstwa_1-2" data-name="Warstwa 1"><g id="Warstwa_2-2" data-name="Warstwa 2"><g id="Warstwa_1-2-2" data-name="Warstwa 1-2"><path class="cls-1" d="M160.9,48.44c1.32,13.12-9.55,61.4-58.81,52.21,0,0,11.3-10.39,24.32-23.5-13.78,3.27-29.06,16.48-29.06,16.48C101.07,72.25,116.14,52.08,160.9,48.44Z"/><path class="cls-1" d="M82.45,90C60.92,70,57.55,27,80.63,0c32.64,22.6,37.24,59.94,10.47,89.35-1.81-4.6-1.86-19.75-5.59-39.85C77.37,69.84,82,91,82.45,90Z"/><path class="cls-1" d="M39.19,75.84c10.2,5.83,20.67,11,32.57,13.15C60.92,49.26,28.73,45.45,0,55A61.8,61.8,0,0,0,48.74,97.13c5.27.89,12.38.42,18.29,0Z"/><path class="cls-1" d="M12.26,123.32c16,7.32,39.45,5.31,48.66-10.86C53.69,113.71,41.1,115.24,41,115l19.37-7.45C43.14,94.35,22.8,99.85,12.26,123.32Z"/><path class="cls-1" d="M131.06,112.37c-2.18-.86-9.86-3.79-13.14-5.27,13.83-6,29.06,1,33.6,9.47C141.33,128,122.66,124,116.7,111.43A57.15,57.15,0,0,0,131.06,112.37Z"/><path class="cls-2" d="M86.94,93.32c3.31-6,5.34,16.39,8.93,17.11a7.22,7.22,0,0,0,4,.55c2.12-.27,6.51-4.34,10.12-7.46,1-.91,2-1.25,3.08-.43,1.69,2-1.13,5.06-2.31,6.74-13.21,16-11.22,40.75-10.7,44.84s.21,20.21,10.71,20.92c4.3.2,17.71.08,17.29,3.17-.17,1.16-1.13.9-3,.83-22.2-.68-44.6-3.5-66.53,1.68-2.28.44-3.59,0-2.64-1.06s4.34-2.13,14-3.49S82.16,175.55,83,169c1.64-11.31,1.71-19.64,1.67-31.08,1.12-16.21-16.39-14.73-19.56-25.8a.36.36,0,0,1,.47-.44c3.06,1.12,6.17,2.87,9.3,4.27-3.07-4.79-12.47-11.2-10.91-14.49,3.61-1.43,11.91,8.36,13.54,9,0-5.19-7.47-15.12-5.73-15.71,6.09-1.23,9.58,13.87,13.82,13C87.81,107,85.87,95.58,86.94,93.32Z"/></g></g></g></g></svg>