<svg xmlns="http://www.w3.org/2000/svg" viewBox="0 0 687.41 181.49"><defs><style>.cls-1{fill:#8cc63e;}.cls-2{fill:#377514;}.cls-3{fill:#406f1e;}.cls-4{fill:#2a2a2a;}.cls-5{fill:#387414;}</style></defs><g id="Warstwa_2" data-name="Warstwa 2"><g id="Warstwa_1-2" data-name="Warstwa 1"><path class="cls-1" d="M160.9,48.49c1.32,13.12-9.55,61.4-58.81,52.21,0,0,11.3-10.39,24.32-23.5-13.78,3.27-29.06,16.48-29.06,16.48C101.07,72.3,116.14,52.13,160.9,48.49Z"/><path class="cls-1" d="M82.45,90.05c-21.53-20-24.9-63-1.82-90,32.64,22.6,37.24,59.94,10.47,89.35-1.81-4.6-1.86-19.75-5.59-39.85C77.37,69.89,82,91,82.45,90.05Z"/><path class="cls-1" d="M39.19,75.89c10.2,5.83,20.67,11,32.57,13.15C60.92,49.31,28.73,45.5,0,55A61.8,61.8,0,0,0,48.74,97.18c5.27.89,12.38.42,18.29,0Z"/><path class="cls-1" d="M12.26,123.37c16,7.32,39.45,5.31,48.66-10.86C53.69,113.76,41.1,115.29,41,115l19.37-7.45C43.14,94.4,22.8,99.9,12.26,123.37Z"/><path class="cls-1" d="M131.06,112.42c-2.18-.86-9.86-3.79-13.14-5.27,13.83-6,29.06,1,33.6,9.47C141.33,128,122.66,124,116.7,111.48A57,57,0,0,0,131.06,112.42Z"/><path class="cls-2" d="M86.94,93.37c3.31-6,5.34,16.39,8.93,17.11a7.29,7.29,0,0,0,4,.55c2.12-.27,6.51-4.34,10.12-7.46,1-.91,2-1.25,3.08-.43,1.69,2-1.13,5.06-2.31,6.74-13.21,16-11.22,40.75-10.7,44.84s.21,20.21,10.71,20.92c4.3.2,17.71.08,17.29,3.17-.17,1.16-1.13.9-3,.83-22.2-.68-44.6-3.5-66.53,1.68-2.28.44-3.59,0-2.64-1.06s4.34-2.13,14-3.49S82.16,175.6,83,169c1.64-11.31,1.71-19.64,1.67-31.08,1.14-16.53-17.09-14.67-19.73-26.47,3.26,1.1,6.59,3,9.94,4.5-3.07-4.79-12.47-11.2-10.91-14.49,3.61-1.43,11.91,8.36,13.54,9,0-5.19-7.47-15.12-5.73-15.71,6.09-1.23,9.58,13.87,13.82,13C87.81,107,85.87,95.63,86.94,93.37Z"/><path class="cls-1" d="M85.59,107.69h0a0,0,0,0,1,0,0Z"/><path class="cls-3" d="M185.51,15.13h-.15a3.11,3.11,0,0,0-.94-2.16,3,3,0,0,0-2.15-.89h-.63v-.49h3.87Zm0,26.8v3.53h-3.87V45h.63a3,3,0,0,0,2.15-.89,3.11,3.11,0,0,0,.94-2.16Zm5.76-30.34V45.46h-5.91V11.59Zm-.15,3.54V11.59H195v.49h-.63a3,3,0,0,0-2.15.89,3.11,3.11,0,0,0-.94,2.16Zm0,26.8h.15a3.11,3.11,0,0,0,.94,2.16,3,3,0,0,0,2.15.89H195v.48h-3.87Zm18.92-30L195.52,29l-2.71.2,13.31-17.28ZM197.31,25.38l13,16.94a8.35,8.35,0,0,0,2.2,2,5.63,5.63,0,0,0,2.64.7v.48h-3.34c-.35,0-.9,0-1.64-.07a16,16,0,0,1-2.5-.38,11.75,11.75,0,0,1-2.78-1,7.47,7.47,0,0,1-2.47-2.08c-.09-.16-.39-.57-.89-1.23s-1.12-1.47-1.86-2.42-1.51-1.95-2.3-3-1.54-2-2.23-2.93l-2.35-3.09Zm16.12-13.79V12h-.19a7.08,7.08,0,0,0-3,.63,6.9,6.9,0,0,0-2.35,1.74l-3.63-.1A1.36,1.36,0,0,0,203.12,12h-.48v-.44h10.79Z"/><path class="cls-3" d="M231.19,15.8A20.67,20.67,0,0,1,238,16.87a15.73,15.73,0,0,1,5.37,3.05,13.44,13.44,0,0,1,3.51,4.76A15.39,15.39,0,0,1,248.08,31a15.31,15.31,0,0,1-1.24,6.26A13.39,13.39,0,0,1,243.33,42,15.9,15.9,0,0,1,238,45a22.18,22.18,0,0,1-13.55,0A15.76,15.76,0,0,1,219.07,42a13.71,13.71,0,0,1-3.49-4.77A15.3,15.3,0,0,1,214.35,31a15.39,15.39,0,0,1,1.23-6.27,13.76,13.76,0,0,1,3.49-4.76,15.59,15.59,0,0,1,5.34-3.05A20.77,20.77,0,0,1,231.19,15.8Zm0,28.55a9.7,9.7,0,0,0,5.56-1.64,11,11,0,0,0,3.8-4.67A17,17,0,0,0,241.93,31a16.89,16.89,0,0,0-1.38-7.11,11,11,0,0,0-3.8-4.65,10.21,10.21,0,0,0-11.13,0,10.88,10.88,0,0,0-3.77,4.65A17.21,17.21,0,0,0,220.49,31,17.28,17.28,0,0,0,221.85,38a10.88,10.88,0,0,0,3.77,4.67A9.73,9.73,0,0,0,231.19,44.35Z"/><path class="cls-3" d="M254.22,42.32v3.14h-4.84V45h.68a3.39,3.39,0,0,0,2.13-.7,2.93,2.93,0,0,0,1.11-2Zm2.86-26.52h.38l1.45,4.07-3,25.59h-3Zm-1,27.25a2.17,2.17,0,0,0,.34,1.25,1.53,1.53,0,0,0,1.4.73h.68v.43h-2.86l.2-2.41Zm1.35-27.25,14,22.7-2.13,7.79L256.4,25Zm26,0,.43,4.36L271.5,41.4a22,22,0,0,0-1.24,2.69,9.18,9.18,0,0,0-.51,2.2h-.43l-1.5-3.63Zm-1.74,27.25H282l.2,2.41h-2.86V45h.68a1.52,1.52,0,0,0,1.45-.73A2,2,0,0,0,281.76,43.05Zm2.17-27.25,4.36,29.66h-6.2l-2.66-19.88,4.07-9.78Zm2.91,26.52h1a2.9,2.9,0,0,0,1.12,2A3.31,3.31,0,0,0,291,45h.72v.48h-4.88Z"/><path class="cls-3" d="M296.85,19.48h-.09a2.61,2.61,0,0,0-.83-1.84,2.65,2.65,0,0,0-1.88-.72h-.63v-.49h3.77Zm0,22.94.34,3h-3.73V45h.59a2.59,2.59,0,0,0,1.88-.75,2.62,2.62,0,0,0,.83-1.81Zm5.57-26v29h-5.66v-29Zm4.35,0a16,16,0,0,1,6.15,1,8.17,8.17,0,0,1,3.7,2.88,7.59,7.59,0,0,1,1.28,4.16,8.65,8.65,0,0,1-1.14,4.91,8.42,8.42,0,0,1-3.29,3.17,8.62,8.62,0,0,1-4.55,1,9.89,9.89,0,0,1-4.86-1.55v-.43a9.68,9.68,0,0,0,2.11-.05,7.84,7.84,0,0,0,2-.61,5.87,5.87,0,0,0,2-1.47,7.19,7.19,0,0,0,1.45-2.76,10.54,10.54,0,0,0,.22-1.33,12.14,12.14,0,0,0,.07-1.28,5.85,5.85,0,0,0-1.74-4.36,6.58,6.58,0,0,0-4.69-1.6h-3.1l-.48-1.74Zm-4.5,26h.1a2.63,2.63,0,0,0,.8,1.81,2.58,2.58,0,0,0,1.91.75h.63l0,.48h-3.73Z"/><path class="cls-3" d="M324.58,19.48h-.1a2.52,2.52,0,0,0-.85-1.84,2.73,2.73,0,0,0-1.91-.72h-.58v-.49h3.44Zm0,22.94.34,3h-3.78V45h.63a2.68,2.68,0,0,0,2.71-2.56Zm5.56-26v29h-5.66v-29ZM330,19.48V16.43h3.43v.49h-.53a2.82,2.82,0,0,0-2,.72,2.4,2.4,0,0,0-.8,1.84Zm12,24.19.77,1.79H330.05V43.67Zm3.05-6.43-2.18,8.22h-8l1.55-1.79a8.29,8.29,0,0,0,3.79-.79,7.53,7.53,0,0,0,2.64-2.25,12.88,12.88,0,0,0,1.74-3.39Z"/><path class="cls-3" d="M350.18,19.48h-.1a2.6,2.6,0,0,0-.82-1.84,2.69,2.69,0,0,0-1.89-.72h-.63v-.49h3.77Zm0,22.94.33,3h-3.77V45h.63a2.68,2.68,0,0,0,2.71-2.56Zm5.56-26v29h-5.66v-29Zm12.24,0v1.79H355.64V16.43Zm-2.22,13.7v1.79H355.64V30.13Zm1.88,13.54.73,1.79H355.64V43.67Zm3-6.43-2.13,8.22h-8L362,43.67a8.34,8.34,0,0,0,3.8-.79,7.53,7.53,0,0,0,2.64-2.25,12.88,12.88,0,0,0,1.74-3.39ZM365.76,26.5v3.72h-3.63v-.09a3,3,0,0,0,2.32-.92,3.29,3.29,0,0,0,.82-2.28V26.5Zm0,5.32v3.77h-.49v-.43a3.31,3.31,0,0,0-.82-2.28,3.09,3.09,0,0,0-2.32-1v-.1ZM368,15.66v1.26l-5.22-.49a19.22,19.22,0,0,0,3-.26A13.4,13.4,0,0,0,368,15.66Zm0,2.42v4.55h-.53v-.54a4,4,0,0,0-1-2.8,3.53,3.53,0,0,0-2.76-1.07v-.14Z"/><path class="cls-3" d="M376.79,19.48h-.1a2.55,2.55,0,0,0-.84-1.84,2.78,2.78,0,0,0-1.92-.72h-.53v-.49h3.39Zm0,22.94v3H373.4V45h.53a2.71,2.71,0,0,0,1.92-.75,2.55,2.55,0,0,0,.84-1.81Zm5.56-26v29h-5.66v-29Zm-.14,3.05V16.43h3.39v.49h-.54a2.77,2.77,0,0,0-1.91.72,2.4,2.4,0,0,0-.8,1.84Zm0,22.94h.14a2.4,2.4,0,0,0,.8,1.81,2.78,2.78,0,0,0,2,.75h.49v.48h-3.39Zm17.13-25.65L386.47,31.43l-2.62.2,11.71-14.86ZM388.21,27.9l11.47,14.56a6.7,6.7,0,0,0,1.86,1.89,4.67,4.67,0,0,0,2.4.68v.43h-3.1c-.32,0-.83,0-1.53,0a13,13,0,0,1-2.32-.37,10.48,10.48,0,0,1-2.56-1,8.27,8.27,0,0,1-2.35-2c-.1-.16-.35-.52-.77-1.07s-.95-1.21-1.58-2l-2-2.44-1.91-2.39c-.59-.76-1.26-1.61-2-2.54Zm14.18-11.47v.44h-.2a6.81,6.81,0,0,0-2.63.51,5.22,5.22,0,0,0-2.06,1.47L394,18.8a1.17,1.17,0,0,0,.19-1.33,1.26,1.26,0,0,0-1.21-.6h-.43v-.44h9.87Z"/><path class="cls-3" d="M414.53,15.8c.74,0,1.53,0,2.35.08s1.62.12,2.39.21,1.46.2,2.06.32a7.4,7.4,0,0,1,1.24.31l-.39,5.52h-.44a4.2,4.2,0,0,0-1.5-3.39,6.69,6.69,0,0,0-4.4-1.26A6.34,6.34,0,0,0,412,18.73a3.58,3.58,0,0,0-1.6,2.88,3.38,3.38,0,0,0,.32,1.48,4.21,4.21,0,0,0,.94,1.23,9.12,9.12,0,0,0,1.5,1.11l8.32,5.66A6.79,6.79,0,0,1,424,33.78a7.77,7.77,0,0,1,.87,3.89,8.14,8.14,0,0,1-1.43,4.43,8.56,8.56,0,0,1-3.65,2.95,12.93,12.93,0,0,1-5.37,1,21,21,0,0,1-3.58-.29,13.18,13.18,0,0,1-3.05-.84,7.32,7.32,0,0,1-2.13-1.33,5.74,5.74,0,0,1-.24-2.13,12.92,12.92,0,0,1,.36-2.57,11.48,11.48,0,0,1,.75-2.22H407a7.5,7.5,0,0,0,.75,3.92,6.54,6.54,0,0,0,2.66,2.73,8.46,8.46,0,0,0,4.19,1A6.51,6.51,0,0,0,419,43a4.23,4.23,0,0,0,1.5-3.31,3.91,3.91,0,0,0-.7-2.28,7,7,0,0,0-2.3-1.93L409.69,30A7.06,7.06,0,0,1,406.74,27a7.64,7.64,0,0,1-.68-3.95,7.51,7.51,0,0,1,1.26-3.8,7.39,7.39,0,0,1,3-2.51A9.59,9.59,0,0,1,414.53,15.8Zm8.08.44,0,.82H418v-.82Z"/><path class="cls-3" d="M446,15.8a20.71,20.71,0,0,1,6.77,1.07,15.92,15.92,0,0,1,5.37,3.05,13.44,13.44,0,0,1,3.51,4.76A15.39,15.39,0,0,1,462.87,31a15.3,15.3,0,0,1-1.23,6.26A13.39,13.39,0,0,1,458.13,42,16.09,16.09,0,0,1,452.76,45a22.18,22.18,0,0,1-13.55,0A15.8,15.8,0,0,1,433.86,42a13.56,13.56,0,0,1-3.48-4.77A15.3,15.3,0,0,1,429.15,31a15.39,15.39,0,0,1,1.23-6.27,13.61,13.61,0,0,1,3.48-4.76,15.64,15.64,0,0,1,5.35-3.05A20.69,20.69,0,0,1,446,15.8Zm0,28.55a9.7,9.7,0,0,0,5.56-1.64,11.09,11.09,0,0,0,3.8-4.67A17,17,0,0,0,456.73,31a16.89,16.89,0,0,0-1.38-7.11,11.09,11.09,0,0,0-3.8-4.65,10.21,10.21,0,0,0-11.13,0,10.88,10.88,0,0,0-3.77,4.65A17.05,17.05,0,0,0,435.29,31,17.12,17.12,0,0,0,436.65,38a10.88,10.88,0,0,0,3.77,4.67A9.71,9.71,0,0,0,446,44.35Z"/><path class="cls-3" d="M473.42,19.63l-6.24,0a4.28,4.28,0,0,0-1.5-2,3.93,3.93,0,0,0-2.33-.72H463v-.49h12.39v.49H475a1.86,1.86,0,0,0-1.4.65C473.15,18,473.1,18.69,473.42,19.63Zm-7.36-2.91h6.3l7,19.45-2,9.83Zm21.05-1,.68,4.3-8.9,21a27.5,27.5,0,0,0-.8,2.71,13.32,13.32,0,0,0-.32,2.33h-.43l-1.16-5,10.5-25.3Zm0,0,9.39,20.62L494.66,46,484.4,23.69Zm16.84,1L496,41a26.64,26.64,0,0,0-.7,2.76A9.9,9.9,0,0,0,495.1,46h-.44l-1.11-4.5L501,16.72ZM500,19.63a2.14,2.14,0,0,0-.12-2.06,1.72,1.72,0,0,0-1.38-.65h-.38v-.49h9v.49h-.34a4.05,4.05,0,0,0-2.32.72,3.87,3.87,0,0,0-1.5,2Z"/><path class="cls-3" d="M511.74,19.48h-.09a2.61,2.61,0,0,0-.83-1.84,2.65,2.65,0,0,0-1.88-.72h-.63v-.49h3.77Zm0,22.94.34,3h-3.77V45h.63a2.59,2.59,0,0,0,1.88-.75,2.62,2.62,0,0,0,.83-1.81Zm5.57-26v29h-5.66v-29Zm12.24,0v1.79H517.21V16.43Zm-2.22,13.7v1.79H517.21V30.13Zm1.88,13.54.73,1.79H517.21V43.67Zm2.95-6.43L530,45.46h-8l1.55-1.79a8.36,8.36,0,0,0,3.8-.79A7.53,7.53,0,0,0,530,40.63a12.88,12.88,0,0,0,1.74-3.39ZM527.33,26.5v3.72H523.7v-.09a3,3,0,0,0,2.32-.92,3.29,3.29,0,0,0,.82-2.28V26.5Zm0,5.32v3.77h-.49v-.43a3.31,3.31,0,0,0-.82-2.28,3.09,3.09,0,0,0-2.32-1v-.1Zm2.22-16.16v1.26l-5.22-.49a19.22,19.22,0,0,0,3-.26A13.4,13.4,0,0,0,529.55,15.66Zm0,2.42v4.55H529v-.54a4,4,0,0,0-1-2.8,3.53,3.53,0,0,0-2.76-1.07v-.14Z"/><path class="cls-3" d="M185.12,70.19v2.9H185a2.23,2.23,0,0,0-.75-1.74,2.63,2.63,0,0,0-1.82-.68h-.77v-.48Zm5.76,0V91.48a14.18,14.18,0,0,0,1.18,6,8.89,8.89,0,0,0,8.45,5.37,10.15,10.15,0,0,0,5.32-1.33,9,9,0,0,0,3.46-3.73,12.27,12.27,0,0,0,1.24-5.68V70.19h3V91.92a13.44,13.44,0,0,1-1.64,6.75,11.26,11.26,0,0,1-4.72,4.47,15.54,15.54,0,0,1-7.28,1.6,19.17,19.17,0,0,1-8.11-1.57,11.45,11.45,0,0,1-5.1-4.46A12.8,12.8,0,0,1,185,92V70.19Zm3.34,0v.48h-.78a2.61,2.61,0,0,0-1.81.68,2.23,2.23,0,0,0-.75,1.74h-.1v-2.9Zm16.45,0v2.9h-.14a2.23,2.23,0,0,0-.75-1.74,2.65,2.65,0,0,0-1.82-.68h-.77v-.48Zm6.24,0v.48h-.77a2.63,2.63,0,0,0-1.82.68,2.23,2.23,0,0,0-.75,1.74h-.09v-2.9Z"/><path class="cls-3" d="M229.35,74.4c.74,0,1.52,0,2.35.07s1.62.12,2.39.22,1.46.2,2.06.31a7,7,0,0,1,1.23.32L237,80.83h-.43a4.19,4.19,0,0,0-1.5-3.38,6.69,6.69,0,0,0-4.4-1.26,6.39,6.39,0,0,0-3.88,1.14,3.55,3.55,0,0,0-1.59,2.88,3.34,3.34,0,0,0,.31,1.47,4.16,4.16,0,0,0,.95,1.24A9.42,9.42,0,0,0,228,84l8.32,5.66a6.77,6.77,0,0,1,2.56,2.69,7.57,7.57,0,0,1,.87,3.89,8.15,8.15,0,0,1-1.42,4.43,8.67,8.67,0,0,1-3.66,3,13.09,13.09,0,0,1-5.37,1,22.17,22.17,0,0,1-3.58-.29,13.31,13.31,0,0,1-3-.85,7.12,7.12,0,0,1-2.13-1.33,6.19,6.19,0,0,1-.24-2.13,12.83,12.83,0,0,1,.36-2.56,11.84,11.84,0,0,1,.75-2.23h.49a7.29,7.29,0,0,0,.75,3.92,6.44,6.44,0,0,0,2.66,2.74,8.43,8.43,0,0,0,4.19,1,6.51,6.51,0,0,0,4.35-1.38,4.25,4.25,0,0,0,1.5-3.32,3.91,3.91,0,0,0-.7-2.27A7.09,7.09,0,0,0,232.3,94l-7.79-5.41a7,7,0,0,1-2.95-3.08,7.62,7.62,0,0,1,3.55-10.26A9.81,9.81,0,0,1,229.35,74.4Zm8.08.43-.05.83h-4.6v-.83Z"/><path class="cls-3" d="M243.24,91.87l15-8.33.92,1.6-15,8.32Zm3.82-13.79H247a2.51,2.51,0,0,0-.84-1.84,2.74,2.74,0,0,0-1.92-.73h-.58V75h3.44Zm0,22.93.34,3h-3.78v-.48h.63A2.68,2.68,0,0,0,247,101Zm5.56-26v29H247V75Zm-.14,3V75h3.43v.48h-.53a2.79,2.79,0,0,0-2,.73,2.37,2.37,0,0,0-.8,1.84Zm12,24.19.77,1.79H252.53v-1.79Zm3-6.43-2.18,8.22h-8l1.55-1.79a8.29,8.29,0,0,0,3.79-.8,7.32,7.32,0,0,0,2.64-2.25A12.81,12.81,0,0,0,267,95.84Z"/><path class="cls-3" d="M271.74,75v2.51h-.1a2.12,2.12,0,0,0-.68-1.47,2.16,2.16,0,0,0-1.55-.61h-.72V75Zm5.61,0V93.32a10.69,10.69,0,0,0,2.18,7.09,7.43,7.43,0,0,0,6,2.59,8.3,8.3,0,0,0,6.36-2.45,9.4,9.4,0,0,0,2.3-6.7V75H297V93.61a10.55,10.55,0,0,1-3.17,8.13q-3.17,3-8.92,3-6.54,0-9.92-2.93a10.07,10.07,0,0,1-3.39-8.05V75Zm2.9,0v.43h-.72a2.22,2.22,0,0,0-1.53.61,1.94,1.94,0,0,0-.65,1.47h-.1V75Zm14,0v2.51h-.1a1.94,1.94,0,0,0-.65-1.47,2.26,2.26,0,0,0-1.58-.61h-.72V75ZM300,75v.43h-.68a2.24,2.24,0,0,0-1.57.61,2.11,2.11,0,0,0-.71,1.47H297V75Z"/><path class="cls-3" d="M318.77,74.4a33.45,33.45,0,0,1,4.38.29,29.74,29.74,0,0,1,4,.82,14.21,14.21,0,0,1,3.29,1.36l.39,7.35h-.39a11.57,11.57,0,0,0-2.3-4.76,8.55,8.55,0,0,0-3.65-2.54,13.87,13.87,0,0,0-4.79-.78,10.59,10.59,0,0,0-5.95,1.62A10.21,10.21,0,0,0,310,82.41a18.29,18.29,0,0,0-1.3,7.28,18.53,18.53,0,0,0,1.23,7.06,10.07,10.07,0,0,0,3.53,4.6A9.43,9.43,0,0,0,319,103a10.55,10.55,0,0,0,3.24-.49,8.73,8.73,0,0,0,2.81-1.45,7.88,7.88,0,0,0,2.08-2.42l.05-6a1.76,1.76,0,0,0-.56-1.4,2.41,2.41,0,0,0-1.62-.48h-.67v-.44h11.27v.44H335c-1.45,0-2.16.64-2.13,1.93l-.05,6.25a12,12,0,0,1-3.07,2.7,19.06,19.06,0,0,1-4.89,2.25,20.53,20.53,0,0,1-6.26.9,18.12,18.12,0,0,1-8.42-1.84,13.37,13.37,0,0,1-5.57-5.22,17.58,17.58,0,0,1,0-16.21,13.18,13.18,0,0,1,5.62-5.21A18.89,18.89,0,0,1,318.77,74.4Z"/><path class="cls-3" d="M341,78.08h-.15a2.28,2.28,0,0,0-.87-1.84,3.11,3.11,0,0,0-2.08-.73h-.63V75H341ZM341,101v3H337.3v-.48h.63a3.07,3.07,0,0,0,2.08-.75,2.32,2.32,0,0,0,.87-1.82Zm5.52-26v29h-5.67V75Zm-.15,3V75h3.73l-.05.48h-.53a3.1,3.1,0,0,0-2.11.73,2.45,2.45,0,0,0-.89,1.84Zm0,22.93h.15a2.51,2.51,0,0,0,.89,1.82,3.06,3.06,0,0,0,2.11.75h.58v.48H346.4Z"/><path class="cls-3" d="M386.67,68.49a21.1,21.1,0,0,1,9.75,2.15,15.4,15.4,0,0,1,6.46,6.12,18.44,18.44,0,0,1,2.28,9.34,18.42,18.42,0,0,1-2.28,9.34,15.28,15.28,0,0,1-6.46,6.12,23.13,23.13,0,0,1-19.52,0,15.34,15.34,0,0,1-6.44-6.12,18.41,18.41,0,0,1-2.27-9.34,18.44,18.44,0,0,1,2.27-9.34,15.46,15.46,0,0,1,6.44-6.12A21,21,0,0,1,386.67,68.49Zm0,33.39A10.53,10.53,0,0,0,393,99.94a12.5,12.5,0,0,0,4.16-5.46,21.76,21.76,0,0,0,1.47-8.38,21.74,21.74,0,0,0-1.47-8.37A12.59,12.59,0,0,0,393,72.26a11.3,11.3,0,0,0-12.63,0,12.52,12.52,0,0,0-4.16,5.47,21.55,21.55,0,0,0-1.48,8.37,21.57,21.57,0,0,0,1.48,8.38,12.43,12.43,0,0,0,4.16,5.46A10.5,10.5,0,0,0,386.67,101.88Z"/><path class="cls-3" d="M425.48,73.38a31.8,31.8,0,0,1,4.38.29,29.74,29.74,0,0,1,4,.82,14.21,14.21,0,0,1,3.29,1.36l.39,7.35h-.39a11.68,11.68,0,0,0-2.3-4.77,8.79,8.79,0,0,0-3.65-2.54,14.11,14.11,0,0,0-4.79-.77,10.63,10.63,0,0,0-6,1.62,10.25,10.25,0,0,0-3.77,4.65,18.29,18.29,0,0,0-1.31,7.28,18.33,18.33,0,0,0,1.24,7.06,10.07,10.07,0,0,0,3.53,4.6,9.43,9.43,0,0,0,5.54,1.6,10.55,10.55,0,0,0,3.24-.49,8.83,8.83,0,0,0,2.81-1.45,7.88,7.88,0,0,0,2.08-2.42l0-6a1.76,1.76,0,0,0-.56-1.4,2.41,2.41,0,0,0-1.62-.48H431V89.2h11.28v.44h-.63c-1.45,0-2.16.64-2.13,1.93l-.05,6.24a12,12,0,0,1-3.07,2.71,19.06,19.06,0,0,1-4.89,2.25,20.65,20.65,0,0,1-6.27.9,18.11,18.11,0,0,1-8.41-1.84,13.4,13.4,0,0,1-5.57-5.23,17.58,17.58,0,0,1,0-16.21,13.19,13.19,0,0,1,5.61-5.2A19,19,0,0,1,425.48,73.38Z"/><path class="cls-3" d="M447.59,77.06h-.09a2.63,2.63,0,0,0-.8-1.84,2.5,2.5,0,0,0-1.82-.73h-.63V74h3.68Zm0,22.93.34,3.05h-3.68v-.48h.58a2.53,2.53,0,0,0,1.87-.75,2.7,2.7,0,0,0,.8-1.82Zm5.57-26v29h-5.71V74Zm5,0a17.5,17.5,0,0,1,4,.43,10,10,0,0,1,3.29,1.38,6.69,6.69,0,0,1,2.23,2.44,7.72,7.72,0,0,1,.8,3.63,8.37,8.37,0,0,1-.78,3.51,7.52,7.52,0,0,1-2.32,2.91,7.78,7.78,0,0,1-3.87,1.47A6.21,6.21,0,0,1,464,91.43a13.67,13.67,0,0,1,1.91,2.37c.1.16.33.52.71,1.09s.83,1.22,1.37,2,1.12,1.51,1.7,2.25a17.74,17.74,0,0,0,1.74,2,4.71,4.71,0,0,0,3.53,1.43V103h-3.19a17.23,17.23,0,0,1-4.4-.48,8.13,8.13,0,0,1-3-1.5,12,12,0,0,1-2.25-2.52c-.23-.35-.52-.84-.89-1.45s-.75-1.25-1.14-1.91-.75-1.29-1.07-1.89a8.9,8.9,0,0,1-.63-1.38,6.45,6.45,0,0,0-1.69-2.23,3.34,3.34,0,0,0-1.89-.82v-.43l.54,0a10.24,10.24,0,0,0,1.21,0,11.15,11.15,0,0,0,2.25-.34,4.31,4.31,0,0,0,2.05-1.26,6.46,6.46,0,0,0,1.4-3,4.24,4.24,0,0,0,.22-1,6.87,6.87,0,0,0,0-1.3,6.74,6.74,0,0,0-.58-2.74,4.84,4.84,0,0,0-1.36-1.72,5.64,5.64,0,0,0-1.79-.92,8,8,0,0,0-1.84-.33c-.93,0-1.76,0-2.46,0l-1.31,0a2.18,2.18,0,0,1-.15-.49c-.06-.29-.16-.74-.29-1.35Zm-5.13,26h.1a2.48,2.48,0,0,0,.87,1.84,2.74,2.74,0,0,0,1.84.73h.53l.05.48h-3.73Z"/><path class="cls-3" d="M491,73.38a20.67,20.67,0,0,1,6.77,1.06,15.9,15.9,0,0,1,5.37,3,13.39,13.39,0,0,1,3.51,4.77,16.45,16.45,0,0,1,0,12.53,13.48,13.48,0,0,1-3.51,4.77,15.71,15.71,0,0,1-5.37,3,22,22,0,0,1-13.55,0,15.57,15.57,0,0,1-5.34-3,13.8,13.8,0,0,1-3.49-4.77,16.57,16.57,0,0,1,0-12.53,13.71,13.71,0,0,1,3.49-4.77,15.76,15.76,0,0,1,5.34-3A20.77,20.77,0,0,1,491,73.38Zm0,28.55a9.63,9.63,0,0,0,5.56-1.65,10.89,10.89,0,0,0,3.8-4.67,19,19,0,0,0,0-14.2,11,11,0,0,0-3.8-4.65,10.26,10.26,0,0,0-11.13,0,10.88,10.88,0,0,0-3.77,4.65,19.21,19.21,0,0,0,0,14.2,10.76,10.76,0,0,0,3.77,4.67A9.66,9.66,0,0,0,491,101.93Z"/><path class="cls-3" d="M514.42,77.1h-.1a2.54,2.54,0,0,0-.85-1.88,2.77,2.77,0,0,0-2-.73h-.58V74h3.49Zm0,22.79V103h-3.49v-.48h.63a2.6,2.6,0,0,0,1.94-.8,2.81,2.81,0,0,0,.82-1.87ZM520,74v29h-5.71V74Zm7.21,0A20,20,0,0,1,536,75.75a12.86,12.86,0,0,1,5.59,5,16.46,16.46,0,0,1,0,15.58,12.82,12.82,0,0,1-5.59,5,20,20,0,0,1-8.71,1.74h-10.6l-.09-1.74h10.3a9.51,9.51,0,0,0,7.72-3.41q2.83-3.42,2.83-9.37c0-4-.93-7.09-2.8-9.36a9.52,9.52,0,0,0-7.75-3.41H516.06V74Z"/><path class="cls-3" d="M549.74,100.09v3h-3.58v-.48h.77a2.69,2.69,0,0,0,1.89-.71,2.25,2.25,0,0,0,.78-1.76Zm-.14-26.76,5.13,5.76v24H549.6V79a38.78,38.78,0,0,0-.49-5.66Zm0,0,27.87,25.06.48,5.28L550.08,78.56Zm5.13,26.76a2.37,2.37,0,0,0,.84,1.76,2.68,2.68,0,0,0,1.82.71h.82V103h-3.58v-3Zm18-23.13a2.43,2.43,0,0,0-.82-1.77,2.67,2.67,0,0,0-1.84-.7h-.82V74h3.58V77ZM577.9,74V97.86c0,1.1,0,2.08.12,3s.21,1.83.37,2.86H578l-5.18-6V74ZM577.76,77V74h3.63v.48h-.82a2.78,2.78,0,0,0-1.87.7,2.27,2.27,0,0,0-.8,1.77Z"/><path class="cls-3" d="M588.21,77.06h-.15a2.28,2.28,0,0,0-.87-1.84,3.11,3.11,0,0,0-2.08-.73h-.63V74h3.73Zm0,22.93V103h-3.73v-.48h.63a3.07,3.07,0,0,0,2.08-.75,2.32,2.32,0,0,0,.87-1.82Zm5.52-26v29h-5.67V74Zm-.15,3V74h3.73l0,.48h-.53a3.11,3.11,0,0,0-2.11.73,2.45,2.45,0,0,0-.89,1.84Zm0,22.93h.15a2.51,2.51,0,0,0,.89,1.82,3.08,3.08,0,0,0,2.11.75h.58V103h-3.73Z"/><path class="cls-3" d="M629.87,90.89l.2,7.07a10.82,10.82,0,0,1-2.84,3,13.75,13.75,0,0,1-4.2,2,19.07,19.07,0,0,1-5.5.73,21.69,21.69,0,0,1-9-1.84,13.33,13.33,0,0,1-5.88-5.18,15.34,15.34,0,0,1-2.05-8.13,15.57,15.57,0,0,1,2-8.13,13.34,13.34,0,0,1,5.86-5.2,21,21,0,0,1,9.09-1.81,26.34,26.34,0,0,1,6.1.68,18.4,18.4,0,0,1,4.89,1.79l.38,7.35h-.38q-1.17-4.45-4-6.27a12.18,12.18,0,0,0-6.71-1.81,10.91,10.91,0,0,0-6.12,1.64,10.21,10.21,0,0,0-3.77,4.65,19.94,19.94,0,0,0,0,14.11,10.5,10.5,0,0,0,3.75,4.67,10.86,10.86,0,0,0,5.83,1.74,14.44,14.44,0,0,0,6-1.12,8.72,8.72,0,0,0,4-3.55,16.28,16.28,0,0,0,2-6.37Z"/><path class="cls-3" d="M658.23,73.38v.38L640.57,103h-6.68v-.44l16.64-26.9h-16V74H653.1c.64,0,1.33,0,2-.1s1.38-.14,1.94-.24S658,73.44,658.23,73.38Zm-23.66-.2a9.67,9.67,0,0,0,1.33.32c.59.11,1.25.21,2,.29s1.39.14,2,.17l-5.32.48Zm0,2.42h4.3v.1a3.75,3.75,0,0,0-2.78,1.11,4,4,0,0,0-1,2.81v.53h-.53Zm23.51,25.7-.34,1.74H637.08V101.3Zm2.37-6.49L658.18,103H650l1.65-1.74a9.37,9.37,0,0,0,3.87-.82,7.56,7.56,0,0,0,2.71-2.23A11.9,11.9,0,0,0,660,94.81Z"/><path class="cls-3" d="M667,77.06h-.1a2.57,2.57,0,0,0-.82-1.84,2.65,2.65,0,0,0-1.89-.73h-.63V74h3.77ZM667,100l.33,3.05h-3.77v-.48h.63a2.68,2.68,0,0,0,2.71-2.57Zm5.56-26v29h-5.66V74Zm12.24,0V75.8H672.45V74ZM682.57,87.7v1.79H672.45V87.7Zm1.88,13.55.73,1.79H672.45v-1.79Zm3-6.44L685.28,103h-8l1.55-1.79a8.33,8.33,0,0,0,3.8-.8,7.32,7.32,0,0,0,2.64-2.25A12.88,12.88,0,0,0,687,94.81Zm-4.84-10.74V87.8h-3.63v-.1a3,3,0,0,0,2.32-.92,3.27,3.27,0,0,0,.82-2.27v-.44Zm0,5.32v3.78h-.49v-.44a3.27,3.27,0,0,0-.82-2.27,3.1,3.1,0,0,0-2.32-1v-.1Zm2.22-16.16v1.26L679.57,74a18.14,18.14,0,0,0,3-.27A13.4,13.4,0,0,0,684.79,73.23Zm0,2.42V80.2h-.53v-.53a4,4,0,0,0-1-2.81,3.52,3.52,0,0,0-2.76-1.06v-.15Z"/><path class="cls-4" d="M191.11,140.2v27a8.53,8.53,0,0,1-.77,3.66,8.68,8.68,0,0,1-2.1,2.82,9,9,0,0,1-3,1.76,8.86,8.86,0,0,1-3.56.48v-.36a6.13,6.13,0,0,0,2.57-2,9.25,9.25,0,0,0,1.55-3,12.14,12.14,0,0,0,.52-3.49V140.2Zm-4.72,2.89h-.11a2.58,2.58,0,0,0-.78-1.76,2.39,2.39,0,0,0-1.76-.73h-.52v-.4h3.17Zm4.6,0V140.2h3.17v.4h-.51a2.37,2.37,0,0,0-1.76.73,2.58,2.58,0,0,0-.78,1.76Z"/><path class="cls-4" d="M200.39,165.25a1.54,1.54,0,0,0,.12,1.71,1.64,1.64,0,0,0,1.23.59h.31v.4h-7.81v-.4h.32a3.24,3.24,0,0,0,1.71-.53,3.86,3.86,0,0,0,1.42-1.77Zm7.53-22,.12,4.09-8.76,20.49H196.5l9.32-20a5.46,5.46,0,0,1,.3-.71c.17-.37.36-.81.57-1.31s.4-1,.58-1.45a4.33,4.33,0,0,0,.29-1.09Zm3.85,16.45v1.43H201.5V159.7Zm-3.85-16.45,11.46,24.46h-5.51l-7.73-18.43Zm4.92,22h5.39a3.82,3.82,0,0,0,1.43,1.77,3.14,3.14,0,0,0,1.66.53h.32v.4H211.17v-.4h.32a1.64,1.64,0,0,0,1.23-.59A1.54,1.54,0,0,0,212.84,165.25Z"/><path class="cls-4" d="M224.93,146.66h-.08a2.12,2.12,0,0,0-.69-1.51,2.29,2.29,0,0,0-1.57-.59h-.44v-.4h2.78Zm0,18.79V168h-2.78v-.4h.44a2.21,2.21,0,0,0,1.57-.61,2.15,2.15,0,0,0,.69-1.49Zm4.56-21.29V168h-4.64V144.16Zm-.12,2.5v-2.5h2.77v.4h-.43a2.29,2.29,0,0,0-1.57.59,2,2,0,0,0-.65,1.51Zm0,18.79h.12a2,2,0,0,0,.65,1.49,2.26,2.26,0,0,0,1.61.61h.39v.4h-2.77Zm14-21-10.54,12-2.14.16,9.59-12.17Zm-9.12,9.12,9.4,11.93a5.51,5.51,0,0,0,1.53,1.55,3.79,3.79,0,0,0,2,.55V168h-2.54c-.26,0-.68,0-1.25,0a9.63,9.63,0,0,1-1.9-.3,8.73,8.73,0,0,1-2.1-.83,6.83,6.83,0,0,1-1.92-1.6c-.08-.14-.3-.43-.64-.88s-.77-1-1.29-1.64-1.05-1.32-1.6-2-1.08-1.35-1.57-2l-1.64-2.08Zm11.62-9.4v.36h-.16a5.54,5.54,0,0,0-2.16.42,4.27,4.27,0,0,0-1.68,1.21l-2.9,0a1,1,0,0,0,.16-1.09,1,1,0,0,0-1-.5h-.36v-.36h8.09Z"/><path class="cls-4" d="M249.94,144.16v2.07h-.08a1.73,1.73,0,0,0-.55-1.21,1.77,1.77,0,0,0-1.27-.5h-.59v-.36Zm4.6,0v15a8.76,8.76,0,0,0,1.79,5.81,6.06,6.06,0,0,0,4.91,2.12,6.81,6.81,0,0,0,5.21-2,7.69,7.69,0,0,0,1.89-5.49V144.16h2.34v15.23a8.65,8.65,0,0,1-2.6,6.66q-2.59,2.41-7.31,2.42-5.35,0-8.13-2.4a8.27,8.27,0,0,1-2.78-6.6V144.16Zm2.38,0v.36h-.59a1.77,1.77,0,0,0-1.25.5,1.57,1.57,0,0,0-.54,1.21h-.08v-2.07Zm11.5,0v2.07h-.08a1.57,1.57,0,0,0-.54-1.21,1.81,1.81,0,0,0-1.29-.5h-.59v-.36Zm4.68,0v.36h-.56a1.85,1.85,0,0,0-1.29.5,1.67,1.67,0,0,0-.57,1.21h-.08v-2.07Z"/><path class="cls-4" d="M278.25,146.66h-.12a2,2,0,0,0-.64-1.51,2.24,2.24,0,0,0-1.58-.59h-.48v-.4h2.82Zm0,18.79V168h-2.82v-.4h.48a2.17,2.17,0,0,0,1.58-.61,2,2,0,0,0,.64-1.49Zm4.48-21.29V168h-4.6V144.16Zm2.5,0a21.91,21.91,0,0,1,2.93.22,10,10,0,0,1,2.85.83,5.18,5.18,0,0,1,2.12,1.81,5.3,5.3,0,0,1,.82,3.09,4.61,4.61,0,0,1-.64,2.42,4.84,4.84,0,0,1-1.62,1.68,6.09,6.09,0,0,1-2.1.82,7.33,7.33,0,0,1,3.23.95,6.54,6.54,0,0,1,2.3,2.16,5.62,5.62,0,0,1,.85,3.07,5.88,5.88,0,0,1-.81,3.19,6.18,6.18,0,0,1-2.16,2.06,10.07,10.07,0,0,1-3.08,1.13,17.31,17.31,0,0,1-3.55.36h-4c0-.48,0-.95,0-1.43h2.86A6.69,6.69,0,0,0,288,166a4.33,4.33,0,0,0,2-1.79,6.2,6.2,0,0,0,.74-3.21,5.71,5.71,0,0,0-.56-2.65,4.61,4.61,0,0,0-1.51-1.73,6.39,6.39,0,0,0-2.18-.93,12.14,12.14,0,0,0-2.61-.28V155a8.69,8.69,0,0,0,1.92-.22,4.78,4.78,0,0,0,1.67-.75,3.83,3.83,0,0,0,1.16-1.45,5.09,5.09,0,0,0,.44-2.26,4.55,4.55,0,0,0-1.29-3.69,5.21,5.21,0,0,0-3.43-1.07h-4.71s0-.16-.08-.4-.14-.58-.24-1Z"/><path class="cls-4" d="M317.18,139.64c.5,0,1.09,0,1.78.08s1.38.13,2.08.22,1.33.19,1.89.28a4.43,4.43,0,0,1,1.15.3l-.32,5h-.4a3.94,3.94,0,0,0-1.44-3.21,5.75,5.75,0,0,0-3.75-1.19,5.42,5.42,0,0,0-3.67,1.19,3.84,3.84,0,0,0-1.41,2.89,2.89,2.89,0,0,0,.58,1.93,7.4,7.4,0,0,0,1.76,1.72l7.65,5.67a6.54,6.54,0,0,1,2.38,2.6,6.9,6.9,0,0,1,.68,3.43,7.52,7.52,0,0,1-2.64,5.78,10.21,10.21,0,0,1-6.84,2.15,18.13,18.13,0,0,1-3-.26,12.89,12.89,0,0,1-2.8-.8,6.21,6.21,0,0,1-2-1.28,5.93,5.93,0,0,1-.19-1.93,12.34,12.34,0,0,1,.31-2.34,10.13,10.13,0,0,1,.68-2H310a6.81,6.81,0,0,0,.68,3.67,6,6,0,0,0,2.44,2.58,7.2,7.2,0,0,0,3.78.89,6.09,6.09,0,0,0,4-1.39,4.27,4.27,0,0,0,1.48-3.37,3.9,3.9,0,0,0-.63-2.16,6,6,0,0,0-2-1.76l-7.18-5.43a7,7,0,0,1-2.6-2.88,7.21,7.21,0,0,1-.65-3.51,7.55,7.55,0,0,1,1.07-3.47,6.71,6.71,0,0,1,2.67-2.47A8.8,8.8,0,0,1,317.18,139.64Zm6.94.4,0,.83H320V140Z"/><path class="cls-4" d="M349.33,143.65V144l-14.47,24h-5.47v-.36l13.64-22H329.94v-1.43h15.19a16.52,16.52,0,0,0,1.68-.08c.6,0,1.13-.11,1.59-.19A8.45,8.45,0,0,0,349.33,143.65Zm-19.39-.16a10.57,10.57,0,0,0,1.09.26c.49.09,1,.17,1.63.23s1.14.12,1.65.14l-4.37.4Zm0,2h3.53v.08a3.1,3.1,0,0,0-2.28.91,3.25,3.25,0,0,0-.81,2.3v.44h-.44Zm19.27,21.05-.28,1.43H332v-1.43Zm1.94-5.31L349.29,168h-6.74l1.35-1.43a7.54,7.54,0,0,0,3.17-.67,6.1,6.1,0,0,0,2.22-1.83,9.71,9.71,0,0,0,1.47-2.81Z"/><path class="cls-4" d="M360.11,146.62l-5.43-.12a4.6,4.6,0,0,0-1.51-1.4,3.87,3.87,0,0,0-2-.54h-.47v-.4h11.06v.4h-.44a1.28,1.28,0,0,0-1.21.67A1.36,1.36,0,0,0,360.11,146.62Zm-1.42-2.42,7.45,13-4.08.83-8.85-13.8Zm3.21,21.25V168h-2.82v-.4h.48a2.17,2.17,0,0,0,1.56-.61,2,2,0,0,0,.66-1.49Zm4.59-8.09V168h-4.71V157.4Zm5.95-13.16h2.78l-9.08,14-1.75-.4Zm-6.06,21.25h.11a2.18,2.18,0,0,0,.68,1.49,2.13,2.13,0,0,0,1.55.61h.47v.4h-2.81Zm4.6-18.79a1.3,1.3,0,0,0,0-1.43,1.32,1.32,0,0,0-1.2-.67h-.48v-.4h8.44v.4h-.51a3.79,3.79,0,0,0-2,.59,5.09,5.09,0,0,0-1.51,1.39Z"/><path class="cls-4" d="M379.5,165.37V168h-4v-.4h.56a2.8,2.8,0,0,0,1.74-.57,2.33,2.33,0,0,0,.91-1.61Zm2.34-21.72h.32l1.18,3.33-2.49,21h-2.46ZM381,166a1.87,1.87,0,0,0,.28,1,1.27,1.27,0,0,0,1.15.59H383V168h-2.34l.16-2Zm1.12-22.32,11.45,18.59-1.74,6.38-10.59-17.48Zm21.32,0,.36,3.57-10.19,17.4a18.64,18.64,0,0,0-1,2.2,7.78,7.78,0,0,0-.42,1.8h-.35l-1.23-3ZM402.06,166h.23l.16,2h-2.34v-.36h.56a1.25,1.25,0,0,0,1.19-.59A1.74,1.74,0,0,0,402.06,166Zm1.78-22.32,3.57,24.3h-5.08l-2.18-16.29,3.33-8Zm2.38,21.72H407a2.41,2.41,0,0,0,.91,1.61,2.75,2.75,0,0,0,1.71.57h.59v.4h-4Z"/><path class="cls-4" d="M415.1,165.25a1.54,1.54,0,0,0,.12,1.71,1.64,1.64,0,0,0,1.23.59h.31v.4H409v-.4h.32A3.24,3.24,0,0,0,411,167a3.86,3.86,0,0,0,1.42-1.77Zm7.53-22,.12,4.09L414,167.83h-2.78l9.32-20a7.58,7.58,0,0,1,.3-.71c.17-.37.36-.81.57-1.31s.4-1,.58-1.45a4.33,4.33,0,0,0,.29-1.09Zm3.85,16.45v1.43H416.21V159.7Zm-3.85-16.45,11.46,24.46h-5.51l-7.73-18.43Zm4.92,22h5.39a3.82,3.82,0,0,0,1.43,1.77,3.14,3.14,0,0,0,1.66.53h.32v.4H425.88v-.4h.32a1.64,1.64,0,0,0,1.23-.59A1.54,1.54,0,0,0,427.55,165.25Z"/><path class="cls-4" d="M439.16,165.53V168h-2.93v-.4h.63a2.23,2.23,0,0,0,1.55-.57,1.88,1.88,0,0,0,.63-1.45ZM439,143.61l4.21,4.72V168H439v-19.7a31.82,31.82,0,0,0-.39-4.64Zm0,0,22.84,20.53.4,4.33-22.84-20.58Zm4.21,21.92a1.93,1.93,0,0,0,.69,1.45,2.21,2.21,0,0,0,1.49.57h.67v.4h-2.93v-2.42ZM458,146.58a2,2,0,0,0-.67-1.44,2.15,2.15,0,0,0-1.51-.58h-.67v-.4h2.93v2.42Zm4.21-2.42v19.55c0,.9,0,1.7.1,2.42s.16,1.49.29,2.34h-.35L458,163.55V144.16Zm-.12,2.42v-2.42h3v.4h-.67a2.21,2.21,0,0,0-1.53.58,1.81,1.81,0,0,0-.65,1.44Z"/><path class="cls-4" d="M480.87,143.65a17,17,0,0,1,5.55.87,12.94,12.94,0,0,1,4.4,2.5,11,11,0,0,1,2.87,3.9,13.56,13.56,0,0,1,0,10.27,11.12,11.12,0,0,1-2.87,3.91,13.09,13.09,0,0,1-4.4,2.49,17.94,17.94,0,0,1-11.1,0,12.9,12.9,0,0,1-4.38-2.49,11.34,11.34,0,0,1-2.86-3.91,13.56,13.56,0,0,1,0-10.27,11.21,11.21,0,0,1,2.86-3.9,12.76,12.76,0,0,1,4.38-2.5A17,17,0,0,1,480.87,143.65Zm0,23.39a7.9,7.9,0,0,0,4.56-1.35,9,9,0,0,0,3.11-3.83,15.53,15.53,0,0,0,0-11.63,9,9,0,0,0-3.11-3.81,8.43,8.43,0,0,0-9.12,0,8.91,8.91,0,0,0-3.09,3.81,15.79,15.79,0,0,0,0,11.63,8.86,8.86,0,0,0,3.09,3.83A7.9,7.9,0,0,0,480.87,167Z"/><path class="cls-4" d="M503.11,146.78l-5.12,0a3.49,3.49,0,0,0-1.22-1.67,3.25,3.25,0,0,0-1.91-.59h-.32v-.4h10.15v.4h-.31a1.54,1.54,0,0,0-1.15.54Q502.71,145.63,503.11,146.78Zm-6-2.38h5.16L508,160.34l-1.63,8Zm17.25-.83.55,3.53-7.29,17.16q-.43,1.28-.66,2.22a10.42,10.42,0,0,0-.25,1.91h-.36l-.95-4.09,8.6-20.73Zm0,0L522,160.5l-1.51,7.89-8.4-18.28Zm13.79.79-6.54,19.86c-.26.88-.45,1.63-.57,2.26a8,8,0,0,0-.14,1.87h-.36l-.91-3.69,6.07-20.3Zm-3.21,2.38a1.71,1.71,0,0,0-.1-1.68,1.42,1.42,0,0,0-1.13-.54h-.31v-.4h7.37v.4h-.28a3.36,3.36,0,0,0-1.9.59,3.22,3.22,0,0,0-1.23,1.67Z"/><path class="cls-4" d="M534.51,146.66h-.12a1.88,1.88,0,0,0-.72-1.51,2.59,2.59,0,0,0-1.7-.59h-.52v-.4h3.06Zm0,18.79V168h-3.06v-.4H532a2.5,2.5,0,0,0,1.7-.61,1.9,1.9,0,0,0,.72-1.49ZM539,144.16V168h-4.64V144.16Zm-.12,2.5v-2.5H542l0,.4h-.44a2.58,2.58,0,0,0-1.72.59,2,2,0,0,0-.73,1.51Zm0,18.79H539a2,2,0,0,0,.73,1.49,2.5,2.5,0,0,0,1.72.61H542v.4h-3.05Z"/><path class="cls-4" d="M568.4,158l.16,5.79a8.78,8.78,0,0,1-2.32,2.44,11.27,11.27,0,0,1-3.45,1.64,15.61,15.61,0,0,1-4.5.6,17.76,17.76,0,0,1-7.41-1.51,10.91,10.91,0,0,1-4.82-4.24,14.12,14.12,0,0,1,0-13.32,10.85,10.85,0,0,1,4.8-4.26,17.1,17.1,0,0,1,7.45-1.49,22,22,0,0,1,5,.55,15.22,15.22,0,0,1,4,1.47l.32,6h-.32a8.19,8.19,0,0,0-3.27-5.14,9.93,9.93,0,0,0-5.49-1.48,8.88,8.88,0,0,0-5,1.34,8.33,8.33,0,0,0-3.1,3.81,16.29,16.29,0,0,0,0,11.56,8.59,8.59,0,0,0,3.08,3.82,8.75,8.75,0,0,0,4.77,1.43,12.07,12.07,0,0,0,4.9-.91,7.16,7.16,0,0,0,3.25-2.92,13.18,13.18,0,0,0,1.61-5.21Z"/><path class="cls-4" d="M591.39,143.65V144l-14.47,24h-5.47v-.36l13.64-22H572v-1.43h15.18a16.84,16.84,0,0,0,1.69-.08c.59,0,1.12-.11,1.58-.19A7.45,7.45,0,0,0,591.39,143.65ZM572,143.49a10.57,10.57,0,0,0,1.09.26c.49.09,1,.17,1.62.23s1.15.12,1.65.14l-4.36.4Zm0,2h3.53v.08a3.1,3.1,0,0,0-2.28.91,3.25,3.25,0,0,0-.81,2.3v.44H572Zm19.27,21.05L591,168H574.07v-1.43Zm1.94-5.31L591.36,168h-6.74l1.34-1.43a7.5,7.5,0,0,0,3.17-.67,6.05,6.05,0,0,0,2.23-1.83,10,10,0,0,0,1.46-2.81Z"/><rect class="cls-5" x="181.64" y="121.62" width="505.77" height="3"/></g></g></svg>