<svg xmlns="http://www.w3.org/2000/svg" xmlns:xlink="http://www.w3.org/1999/xlink" viewBox="0 0 233.03 112.01"><defs><style>.cls-1{isolation:isolate;}.cls-2{mix-blend-mode:luminosity;}.cls-3{fill:url(#Gradient_bez_nazwy_5);}.cls-4{fill:url(#Gradient_bez_nazwy_5-2);}.cls-5{fill:url(#Gradient_bez_nazwy_5-3);}.cls-6{fill:url(#Gradient_bez_nazwy_5-4);}.cls-7{fill:url(#Gradient_bez_nazwy_5-5);}.cls-8{fill:#2a2a2a;}.cls-9{fill:url(#Gradient_bez_nazwy_5-6);}.cls-10{fill:#377514;}</style><linearGradient id="Gradient_bez_nazwy_5" x1="99.64" y1="51.56" x2="99.64" y2="65.85" gradientTransform="translate(-4.91 8.76) rotate(-5.22)" gradientUnits="userSpaceOnUse"><stop offset="0" stop-color="#8cc63e"/><stop offset="1" stop-color="#377514"/></linearGradient><linearGradient id="Gradient_bez_nazwy_5-2" x1="134.36" y1="50.18" x2="134.36" y2="59.98" gradientTransform="translate(8.92 -17.14) rotate(7.91)" xlink:href="#Gradient_bez_nazwy_5"/><linearGradient id="Gradient_bez_nazwy_5-3" x1="97.29" y1="27.46" x2="97.29" y2="52.48" gradientTransform="matrix(1, 0, 0, 1, 0, 0)" xlink:href="#Gradient_bez_nazwy_5"/><linearGradient id="Gradient_bez_nazwy_5-4" x1="138.02" y1="23.42" x2="138.02" y2="51.81" gradientTransform="matrix(1, 0, 0, 1, 0, 0)" xlink:href="#Gradient_bez_nazwy_5"/><linearGradient id="Gradient_bez_nazwy_5-5" x1="118.67" y1="0" x2="118.67" y2="47.88" gradientTransform="matrix(1, 0, 0, 1, 0, 0)" xlink:href="#Gradient_bez_nazwy_5"/><linearGradient id="Gradient_bez_nazwy_5-6" x1="40.91" y1="94.75" x2="188.98" y2="94.75" gradientTransform="matrix(1, 0, 0, 1, 0, 0)" xlink:href="#Gradient_bez_nazwy_5"/></defs><g class="cls-1"><g id="Warstwa_2" data-name="Warstwa 2"><g id="Warstwa_1-2" data-name="Warstwa 1"><g class="cls-2"><path class="cls-3" d="M87.23,64.3c8.83,3.1,21.15.9,25.25-8.11a102.67,102.67,0,0,1-10.43,2.28l9.9-4.88C102.18,47.46,91.68,51.36,87.23,64.3Z"/><path class="cls-4" d="M132.94,54.8c-1.09-.62-4.92-2.72-6.54-3.74,7.73-2.15,15.24,2.65,17,7.45-6.2,5.25-15.75,1.77-18-5.26A30.42,30.42,0,0,0,132.94,54.8Z"/><path class="cls-5" d="M99.05,40.89c5.42,3.1,11,5.85,17.32,7C110.61,26.75,93.48,24.72,78.2,29.77a32.88,32.88,0,0,0,25.93,22.44,45.83,45.83,0,0,0,9.73,0Z"/><path class="cls-6" d="M154.89,23.42c.71,7-5.08,32.66-31.28,27.78,0,0,6-5.53,12.94-12.51-7.33,1.74-15.46,8.77-15.46,8.77C123.07,36.09,131.08,25.36,154.89,23.42Z"/><path class="cls-7" d="M116.37,47.88C104.92,37.24,103.22,14.36,115.5,0c17.36,12,19.81,31.89,5.57,47.53-1-2.45-1-10.51-3-21.2C113.77,37.15,115.5,46.26,116.37,47.88Z"/></g><path class="cls-8" d="M50.62,100.3v8.85a2.78,2.78,0,0,1-.25,1.2,2.82,2.82,0,0,1-.69.92,2.86,2.86,0,0,1-1,.58,3.07,3.07,0,0,1-1.17.16v-.12a2,2,0,0,0,.85-.66,2.93,2.93,0,0,0,.5-1,3.71,3.71,0,0,0,.17-1.14V100.3Zm-1.54,1h0a.9.9,0,0,0-.25-.58.79.79,0,0,0-.58-.23H48v-.14h1Zm1.5,0v-1h1v.14h-.16a.78.78,0,0,0-.58.23.86.86,0,0,0-.26.58Z"/><path class="cls-8" d="M53.66,108.51a.52.52,0,0,0,0,.56.53.53,0,0,0,.41.19h.1v.14H51.65v-.14h.1a1,1,0,0,0,.56-.17,1.22,1.22,0,0,0,.47-.58Zm2.47-7.21,0,1.34-2.87,6.72h-.91l3-6.56a2.29,2.29,0,0,1,.1-.23c.06-.12.12-.26.19-.43s.13-.33.19-.47a1.58,1.58,0,0,0,.09-.36Zm1.26,5.39v.47H54v-.47Zm-1.26-5.39,3.75,8h-1.8l-2.53-6Zm1.61,7.21h1.77a1.16,1.16,0,0,0,.47.58,1,1,0,0,0,.54.17h.1v.14H57.19v-.14h.11a.51.51,0,0,0,.4-.19A.5.5,0,0,0,57.74,108.51Z"/><path class="cls-8" d="M61.7,102.42h0a.69.69,0,0,0-.23-.49.74.74,0,0,0-.51-.2h-.15v-.13h.91Zm0,6.16v.83h-.91v-.13h.15a.74.74,0,0,0,.51-.2.71.71,0,0,0,.23-.49Zm1.5-7v7.81H61.68V101.6Zm0,.82v-.82h.9v.13h-.14a.74.74,0,0,0-.51.2.6.6,0,0,0-.21.49Zm0,6.16h0a.63.63,0,0,0,.21.48.69.69,0,0,0,.53.2h.12v.14h-.9Zm4.58-6.88-3.45,3.93-.7.05,3.14-4Zm-3,3,3.08,3.91a1.74,1.74,0,0,0,.5.51,1.22,1.22,0,0,0,.65.18v.13H67.75a2.59,2.59,0,0,1-.62-.1,2.91,2.91,0,0,1-.69-.27,2.25,2.25,0,0,1-.63-.52l-.21-.29-.42-.54-.53-.65-.51-.66-.54-.68Zm3.8-3.07v.11h0a2,2,0,0,0-.71.14,1.45,1.45,0,0,0-.55.4h-1a.32.32,0,0,0,0-.36.3.3,0,0,0-.32-.16h-.12v-.12h2.65Z"/><path class="cls-8" d="M69.9,101.6v.68h0a.62.62,0,0,0-.18-.4.63.63,0,0,0-.42-.16h-.19v-.12Zm1.5,0v4.92a2.85,2.85,0,0,0,.59,1.9,2,2,0,0,0,1.61.69,2.2,2.2,0,0,0,1.7-.65,2.48,2.48,0,0,0,.62-1.8V101.6h.77v5a2.86,2.86,0,0,1-.85,2.18,3.44,3.44,0,0,1-2.4.8,4,4,0,0,1-2.66-.79,2.7,2.7,0,0,1-.91-2.16v-5Zm.78,0v.12H72a.62.62,0,0,0-.41.16.52.52,0,0,0-.18.4h0v-.68Zm3.77,0v.68h0a.51.51,0,0,0-.17-.4.67.67,0,0,0-.43-.16h-.19v-.12Zm1.53,0v.12H77.3a.63.63,0,0,0-.42.16.53.53,0,0,0-.19.4h0v-.68Z"/><path class="cls-8" d="M79.17,102.42h0a.64.64,0,0,0-.21-.49.77.77,0,0,0-.52-.2h-.15v-.13h.92Zm0,6.16v.83h-.92v-.13h.15a.71.71,0,0,0,.52-.2.65.65,0,0,0,.21-.49Zm1.47-7v7.81H79.13V101.6Zm.82,0a7.75,7.75,0,0,1,1,.07,3.44,3.44,0,0,1,.93.28,1.65,1.65,0,0,1,1,1.6,1.58,1.58,0,0,1-.74,1.34,1.72,1.72,0,0,1-.69.27,2.42,2.42,0,0,1,1.06.31,2.16,2.16,0,0,1,.76.71,1.87,1.87,0,0,1,.27,1,1.82,1.82,0,0,1-.26,1,2.1,2.1,0,0,1-.71.68,3.49,3.49,0,0,1-1,.37,5.64,5.64,0,0,1-1.16.12H80.52v-.47h.94a2.12,2.12,0,0,0,.9-.17,1.4,1.4,0,0,0,.66-.59,2,2,0,0,0,.24-1,1.86,1.86,0,0,0-.18-.87,1.61,1.61,0,0,0-.5-.57,2.24,2.24,0,0,0-.71-.3,4.12,4.12,0,0,0-.86-.09v-.14a2.59,2.59,0,0,0,.63-.07,1.7,1.7,0,0,0,.55-.24,1.37,1.37,0,0,0,.38-.48,1.71,1.71,0,0,0,.14-.74,1.47,1.47,0,0,0-.42-1.21,1.68,1.68,0,0,0-1.12-.35H79.63a.41.41,0,0,0,0-.13,2.68,2.68,0,0,1-.08-.33Z"/><path class="cls-8" d="M91.92,100.12a4.3,4.3,0,0,1,.59,0l.68.07.62.09a1.56,1.56,0,0,1,.37.1l-.1,1.64H94a1.3,1.3,0,0,0-.47-1,1.9,1.9,0,0,0-1.23-.39A1.72,1.72,0,0,0,91,101a1.26,1.26,0,0,0-.46.94,1,1,0,0,0,.19.63,2.61,2.61,0,0,0,.58.57L93.86,105a2.13,2.13,0,0,1,.78.85,2.39,2.39,0,0,1,.22,1.12,2.45,2.45,0,0,1-.87,1.89,3.34,3.34,0,0,1-2.24.71,5.33,5.33,0,0,1-1-.09,4.36,4.36,0,0,1-.92-.26,2,2,0,0,1-.65-.42,1.67,1.67,0,0,1-.06-.63,3.39,3.39,0,0,1,.1-.77,3.11,3.11,0,0,1,.22-.65h.11a2.26,2.26,0,0,0,.22,1.2,2.05,2.05,0,0,0,.8.85,2.44,2.44,0,0,0,1.24.29,2,2,0,0,0,1.31-.46,1.4,1.4,0,0,0,.49-1.1,1.28,1.28,0,0,0-.21-.71,1.94,1.94,0,0,0-.66-.58l-2.35-1.78a2.23,2.23,0,0,1-1.06-2.09,2.45,2.45,0,0,1,.35-1.14,2.16,2.16,0,0,1,.87-.8A2.88,2.88,0,0,1,91.92,100.12Zm2.28.13v.27H92.85v-.28Z"/><path class="cls-8" d="M102.45,101.43v.12l-4.74,7.86H95.92v-.12l4.47-7.2H96.1v-.47h5a5.07,5.07,0,0,0,.55,0,2.57,2.57,0,0,0,.52-.06Zm-6.35-.05a2.37,2.37,0,0,0,.36.09l.53.07.54,0-1.43.13Zm0,.66h1.16v0a1,1,0,0,0-1,1.06v.14H96.1Zm6.32,6.89-.1.47H96.78v-.47Zm.63-1.74-.61,2.22h-2.21l.45-.47a2.3,2.3,0,0,0,1-.22,1.93,1.93,0,0,0,.73-.6,3.11,3.11,0,0,0,.48-.92Z"/><path class="cls-8" d="M106,102.41l-1.78,0a1.47,1.47,0,0,0-.5-.46,1.25,1.25,0,0,0-.65-.18h-.16v-.13h3.63v.13h-.15a.41.41,0,0,0-.39.22A.43.43,0,0,0,106,102.41Zm-.47-.8,2.44,4.26-1.33.28-2.9-4.53Zm1,7v.83h-.92v-.13h.16a.7.7,0,0,0,.51-.2.64.64,0,0,0,.21-.49Zm1.51-2.65v3.48h-1.55v-3.47Zm2-4.32h.91l-3,4.59-.57-.13Zm-2,7h0a.64.64,0,0,0,.22.48.65.65,0,0,0,.51.2H109v.14H108Zm1.51-6.16a.44.44,0,0,0,0-.47.45.45,0,0,0-.4-.22H109v-.13h2.76v.13h-.17a1.18,1.18,0,0,0-.65.2,1.78,1.78,0,0,0-.5.45Z"/><path class="cls-8" d="M112.34,108.55v.86H111v-.13h.18a.89.89,0,0,0,.57-.19.72.72,0,0,0,.3-.52Zm.76-7.12h.11l.39,1.1-.82,6.88H112Zm-.27,7.33a.59.59,0,0,0,.09.32.42.42,0,0,0,.38.2h.18v.13h-.76l0-.65Zm.37-7.32,3.75,6.09-.57,2.09-3.47-5.72Zm7,0,.12,1.17-3.34,5.7q-.18.36-.33.72a2.5,2.5,0,0,0-.13.59h-.12l-.4-1Zm-.45,7.32h.07l.06.65h-.77v-.12h.18a.4.4,0,0,0,.39-.19A.57.57,0,0,0,119.73,108.76Zm.58-7.32,1.17,8h-1.66l-.72-5.34,1.09-2.62Zm.78,7.12h.26a.76.76,0,0,0,.3.53.86.86,0,0,0,.56.18h.19v.14h-1.31Z"/><path class="cls-8" d="M124,108.51a.5.5,0,0,0,0,.56.53.53,0,0,0,.4.19h.1v.14H122v-.14h.11a1,1,0,0,0,.55-.18,1.2,1.2,0,0,0,.46-.58Zm2.47-7.21,0,1.34-2.87,6.72h-.91l3-6.56a2.29,2.29,0,0,1,.1-.23c.06-.12.12-.26.19-.43s.13-.33.19-.47a1.58,1.58,0,0,0,.09-.36Zm1.26,5.39v.47h-3.37v-.47Zm-1.26-5.39,3.75,8h-1.8l-2.54-6Zm1.61,7.21h1.76a1.28,1.28,0,0,0,.47.58,1,1,0,0,0,.55.17h.1v.14h-3.43v-.14h.11a.53.53,0,0,0,.4-.19.5.5,0,0,0,0-.56Z"/><path class="cls-8" d="M131.88,108.6v.81h-1v-.13h.21a.69.69,0,0,0,.51-.19.6.6,0,0,0,.2-.47Zm0-7.18,1.38,1.55v6.44h-1.38V103a11,11,0,0,0-.13-1.52Zm0,0,7.48,6.73.13,1.42L132,102.82Zm1.38,7.18a.6.6,0,0,0,.23.48.7.7,0,0,0,.48.18h.22v.14h-1v-.8Zm4.84-6.21a.62.62,0,0,0-.22-.47.73.73,0,0,0-.49-.19h-.22v-.13h1v.79Zm1.38-.79V108a4.91,4.91,0,0,0,0,.79c0,.23.05.49.09.77h-.11l-1.4-1.62V101.6Zm0,.79v-.79h1v.13h-.22a.74.74,0,0,0-.5.19.62.62,0,0,0-.22.47Z"/><path class="cls-8" d="M145.55,101.43a5.58,5.58,0,0,1,1.81.29,4.35,4.35,0,0,1,1.45.82,3.73,3.73,0,0,1,.94,1.28,4.44,4.44,0,0,1,0,3.36,3.73,3.73,0,0,1-.94,1.28,4.53,4.53,0,0,1-1.45.82,5.92,5.92,0,0,1-3.63,0,4.21,4.21,0,0,1-1.44-.82,3.58,3.58,0,0,1-.93-1.28,4.44,4.44,0,0,1,0-3.36,3.58,3.58,0,0,1,.93-1.28,4.05,4.05,0,0,1,1.44-.82A5.59,5.59,0,0,1,145.55,101.43Zm0,7.67a2.56,2.56,0,0,0,1.49-.45,2.91,2.91,0,0,0,1-1.25,5.12,5.12,0,0,0,0-3.81,3,3,0,0,0-1-1.25,2.79,2.79,0,0,0-3,0,2.93,2.93,0,0,0-1,1.25,5.22,5.22,0,0,0,0,3.81,2.81,2.81,0,0,0,1,1.25,2.5,2.5,0,0,0,1.5.43Z"/><path class="cls-8" d="M152.83,102.46h-1.68a1.14,1.14,0,0,0-.39-.55,1.11,1.11,0,0,0-.63-.19H150v-.13h3.33v.13h-.1a.51.51,0,0,0-.38.18A.53.53,0,0,0,152.83,102.46Zm-2-.78h1.69l1.87,5.22-.53,2.62Zm5.65-.27.18,1.15-2.39,5.63c-.09.28-.17.52-.22.72a4.52,4.52,0,0,0-.08.63h-.12l-.31-1.34,2.82-6.79Zm0,0L159,107l-.49,2.59-2.76-6Zm4.51.26-2.14,6.5a7,7,0,0,0-.18.74,2.6,2.6,0,0,0-.05.62h-.12l-.3-1.21,2-6.65Zm-1.05.78a.54.54,0,0,0,0-.55.46.46,0,0,0-.37-.18h-.1v-.13h2.41v.13h-.09a1.13,1.13,0,0,0-.62.19,1.1,1.1,0,0,0-.4.55Z"/><path class="cls-8" d="M163.12,102.42h0a.63.63,0,0,0-.24-.49.85.85,0,0,0-.55-.2h-.17v-.13h1Zm0,6.16v.83h-1v-.13h.18a.8.8,0,0,0,.55-.2.63.63,0,0,0,.24-.49Zm1.47-7v7.81h-1.52V101.6Zm0,.82v-.82h1v.13h-.14a.9.9,0,0,0-.57.2.65.65,0,0,0-.23.49Zm0,6.16h0a.61.61,0,0,0,.24.48.78.78,0,0,0,.56.2h.18v.14h-1Z"/><path class="cls-8" d="M174.22,106.14l.05,1.89a2.64,2.64,0,0,1-.76.8,3.57,3.57,0,0,1-1.13.54,5.21,5.21,0,0,1-1.47.2,5.81,5.81,0,0,1-2.43-.5,3.6,3.6,0,0,1-1.58-1.39,4.61,4.61,0,0,1,0-4.36,3.61,3.61,0,0,1,1.57-1.4,5.74,5.74,0,0,1,2.45-.49,7.4,7.4,0,0,1,1.63.18,5,5,0,0,1,1.31.49l.11,2h-.11a2.63,2.63,0,0,0-1.07-1.68,3.26,3.26,0,0,0-1.8-.49,2.94,2.94,0,0,0-1.63.44,2.77,2.77,0,0,0-1,1.25,5.38,5.38,0,0,0,0,3.79,2.74,2.74,0,0,0,2.57,1.72,4,4,0,0,0,1.61-.3,2.35,2.35,0,0,0,1.06-1,4.39,4.39,0,0,0,.53-1.7Z"/><path class="cls-8" d="M181.75,101.43v.12L177,109.41h-1.79v-.12l4.47-7.2H175.4v-.47h5a5.25,5.25,0,0,0,.56,0,2.55,2.55,0,0,0,.51-.06Zm-6.35-.05a2.37,2.37,0,0,0,.36.09l.53.07.54,0-1.43.13Zm0,.66h1.16v0a1.05,1.05,0,0,0-.75.3,1.11,1.11,0,0,0-.27.76v.14h-.14Zm6.31,6.89-.09.48h-5.54v-.47Zm.64-1.74-.61,2.22h-2.21l.44-.47a2.32,2.32,0,0,0,1-.22,1.85,1.85,0,0,0,.73-.6,3.23,3.23,0,0,0,.48-.92Z"/><rect class="cls-9" x="40.91" y="94.13" width="148.07" height="1.25"/><path class="cls-10" d="M7.43,89.12H5.8L2.43,84.3l-1,.9v3.92H0V78.87H1.4v5L2.11,83l.72-.83L5.7,78.87H7.31L3.45,83.34Z"/><path class="cls-10" d="M16.57,84a7.32,7.32,0,0,1-.3,2.16,4.58,4.58,0,0,1-.87,1.67A3.89,3.89,0,0,1,14,88.88a4.86,4.86,0,0,1-2,.38,5,5,0,0,1-2-.38A3.74,3.74,0,0,1,8.43,87.8a4.49,4.49,0,0,1-.86-1.67A7.68,7.68,0,0,1,7.28,84a7,7,0,0,1,.51-2.77,4,4,0,0,1,1.55-1.84A4.86,4.86,0,0,1,12,78.71a4.73,4.73,0,0,1,2.55.65,4.1,4.1,0,0,1,1.55,1.83A7,7,0,0,1,16.57,84ZM8.76,84a6.12,6.12,0,0,0,.34,2.16,2.87,2.87,0,0,0,1,1.4,3,3,0,0,0,1.79.5,3,3,0,0,0,1.8-.5,2.85,2.85,0,0,0,1-1.4A6.37,6.37,0,0,0,15.09,84a5,5,0,0,0-.76-3A2.71,2.71,0,0,0,12,80a3.06,3.06,0,0,0-1.8.49A2.83,2.83,0,0,0,9.1,81.83,6,6,0,0,0,8.76,84Z"/><path class="cls-10" d="M22.12,89.12,19,80.31h0c0,.19,0,.44,0,.74s0,.63.05,1,0,.7,0,1v6.05H17.75V78.87h2l3,8.35h.05l3-8.35h2V89.12H26.48V83c0-.31,0-.63,0-1s0-.65,0-1,0-.55,0-.75h-.06l-3.2,8.8Z"/><path class="cls-10" d="M32.29,78.87a4.2,4.2,0,0,1,2.83.79A2.84,2.84,0,0,1,36,81.91a3.68,3.68,0,0,1-.2,1.25,2.66,2.66,0,0,1-.67,1,3.29,3.29,0,0,1-1.22.72,5.76,5.76,0,0,1-1.85.26H30.93v3.93h-1.4V78.87Zm-.11,1.21H30.93V84h1a4.4,4.4,0,0,0,1.46-.2,1.62,1.62,0,0,0,.89-.64A1.94,1.94,0,0,0,34.58,82,1.7,1.7,0,0,0,34,80.55,2.8,2.8,0,0,0,32.18,80.08Z"/><path class="cls-10" d="M37.06,89.12V78.87h1.41v9h4.35v1.25Z"/><path class="cls-10" d="M49.62,89.13H44V78.88h5.62v1.23H45.4v3h4v1.23h-4v3.5h4.22Z"/><path class="cls-10" d="M58.24,89.13H56.6l-3.36-4.82-1,.9v3.92h-1.4V78.88h1.4v5l.71-.84.72-.83,2.87-3.34h1.61l-3.87,4.47Z"/><path class="cls-10" d="M65.05,86.38a2.77,2.77,0,0,1-.44,1.56,2.83,2.83,0,0,1-1.25,1,4.78,4.78,0,0,1-1.9.34,9,9,0,0,1-1.06-.06,6.3,6.3,0,0,1-.94-.17,4.48,4.48,0,0,1-.78-.28V87.4a11.22,11.22,0,0,0,1.32.45,6.08,6.08,0,0,0,1.54.2,3,3,0,0,0,1.16-.19,1.58,1.58,0,0,0,.71-.54,1.49,1.49,0,0,0,.24-.85,1.44,1.44,0,0,0-.23-.82,2.12,2.12,0,0,0-.74-.61,9.52,9.52,0,0,0-1.32-.6,6.55,6.55,0,0,1-1-.48,3.94,3.94,0,0,1-.81-.62,2.49,2.49,0,0,1-.52-.82,3.07,3.07,0,0,1-.19-1.09A2.58,2.58,0,0,1,59.22,80a2.55,2.55,0,0,1,1.14-.92,4.3,4.3,0,0,1,1.7-.32,6.85,6.85,0,0,1,1.48.16,7.33,7.33,0,0,1,1.32.45l-.45,1.19a7.71,7.71,0,0,0-1.17-.4A4.92,4.92,0,0,0,62,80a2.35,2.35,0,0,0-1,.18,1.33,1.33,0,0,0-.61.5,1.35,1.35,0,0,0-.21.76,1.45,1.45,0,0,0,.22.83,1.89,1.89,0,0,0,.69.6,11.72,11.72,0,0,0,1.23.56,9.46,9.46,0,0,1,1.46.72,2.45,2.45,0,0,1,1.23,2.26Z"/><path class="cls-10" d="M74.82,84a7.68,7.68,0,0,1-.29,2.16,4.76,4.76,0,0,1-.88,1.67,3.86,3.86,0,0,1-1.44,1.07,4.94,4.94,0,0,1-2,.38,5,5,0,0,1-2.05-.38,3.74,3.74,0,0,1-1.45-1.08,4.64,4.64,0,0,1-.86-1.67A7.69,7.69,0,0,1,65.54,84a6.94,6.94,0,0,1,.5-2.76,4,4,0,0,1,1.55-1.85,4.86,4.86,0,0,1,2.61-.65,4.69,4.69,0,0,1,2.55.65A4.09,4.09,0,0,1,74.3,81.2,6.84,6.84,0,0,1,74.82,84ZM67,84a6.12,6.12,0,0,0,.34,2.16,2.87,2.87,0,0,0,1,1.4,3.47,3.47,0,0,0,3.59,0,2.85,2.85,0,0,0,1-1.4A6.37,6.37,0,0,0,73.34,84a5.08,5.08,0,0,0-.75-3A2.74,2.74,0,0,0,70.2,80a3.06,3.06,0,0,0-1.8.49,2.87,2.87,0,0,0-1.05,1.39A6,6,0,0,0,67,84Z"/><path class="cls-10" d="M88,78.87,85.33,89.13H83.85L82,82.61c0-.18-.1-.36-.15-.57l-.15-.6c0-.19-.09-.37-.12-.53s-.06-.28-.07-.37q0,.13-.06.36c0,.16-.06.34-.1.53s-.09.4-.14.6-.1.4-.15.58l-1.79,6.52H77.81L75.18,78.87h1.43l1.53,6.23.15.62c0,.22.09.43.13.64s.08.42.11.62.06.38.09.56c0-.18,0-.37.09-.58s.07-.42.12-.64.09-.43.14-.64.1-.41.16-.6l1.71-6.21h1.4L84,85.12c0,.19.11.4.16.61s.1.43.14.65.09.42.12.62.06.37.09.54q0-.35.12-.75c0-.28.11-.56.17-.85s.13-.57.19-.85l1.53-6.22Z"/><path class="cls-10" d="M94.53,89.13H88.9V78.87h5.63v1.24H90.31v3h4v1.22h-4v3.51h4.22Z"/><path class="cls-10" d="M107.28,78.87v6.64a4.19,4.19,0,0,1-.44,1.93,3.19,3.19,0,0,1-1.31,1.34,4.53,4.53,0,0,1-2.2.49,3.52,3.52,0,0,1-3.87-3.79V78.87h1.41v6.55a2.69,2.69,0,0,0,.64,2,2.49,2.49,0,0,0,1.88.66,2.84,2.84,0,0,0,1.42-.32,2,2,0,0,0,.81-.9,3.5,3.5,0,0,0,.26-1.4V78.87Z"/><path class="cls-10" d="M115.33,86.37a2.73,2.73,0,0,1-.44,1.56,2.76,2.76,0,0,1-1.25,1,4.74,4.74,0,0,1-1.9.35,9,9,0,0,1-1.06-.06,7.74,7.74,0,0,1-.93-.17,4.72,4.72,0,0,1-.78-.28V87.4a12.47,12.47,0,0,0,1.31.44,5.67,5.67,0,0,0,1.54.21,3,3,0,0,0,1.16-.2,1.47,1.47,0,0,0,.71-.54,1.43,1.43,0,0,0,.24-.84,1.35,1.35,0,0,0-.23-.82A2.14,2.14,0,0,0,113,85a11,11,0,0,0-1.32-.59,7,7,0,0,1-1-.48,3.65,3.65,0,0,1-.81-.63,2.39,2.39,0,0,1-.52-.82,3,3,0,0,1-.18-1.09,2.52,2.52,0,0,1,.4-1.45,2.61,2.61,0,0,1,1.14-.92,4.13,4.13,0,0,1,1.7-.32,6.42,6.42,0,0,1,1.49.16,7.2,7.2,0,0,1,1.31.44l-.45,1.19a10.09,10.09,0,0,0-1.17-.4A4.91,4.91,0,0,0,112.3,80a2.57,2.57,0,0,0-1,.17,1.3,1.3,0,0,0-.82,1.27,1.41,1.41,0,0,0,.22.82,2.08,2.08,0,0,0,.69.6,10.56,10.56,0,0,0,1.23.57,8.29,8.29,0,0,1,1.46.71A2.86,2.86,0,0,1,115,85,2.64,2.64,0,0,1,115.33,86.37Z"/><path class="cls-10" d="M117,89.13V85.56l-.66.4-.54-.94,1.2-.75v-5.4h1.41v4.54l1.73-1.06.55,1-2.28,1.37v3.18h4.35v1.25Z"/><path class="cls-10" d="M131.52,78.87v6.64a4.19,4.19,0,0,1-.44,1.93,3.19,3.19,0,0,1-1.31,1.34,4.53,4.53,0,0,1-2.2.49,3.52,3.52,0,0,1-3.87-3.79V78.87h1.41v6.55a2.69,2.69,0,0,0,.64,2,2.49,2.49,0,0,0,1.88.66,2.84,2.84,0,0,0,1.42-.32,2,2,0,0,0,.81-.9,3.5,3.5,0,0,0,.26-1.4V78.87Z"/><path class="cls-10" d="M137.86,83.66h3.62v5a9.63,9.63,0,0,1-1.62.42,11.81,11.81,0,0,1-1.88.14,5,5,0,0,1-2.61-.63,4,4,0,0,1-1.61-1.81,6.63,6.63,0,0,1-.55-2.84,5.92,5.92,0,0,1,.61-2.77,4.25,4.25,0,0,1,1.77-1.84,5.61,5.61,0,0,1,2.81-.65,7.43,7.43,0,0,1,1.58.16,7.08,7.08,0,0,1,1.39.45l-.5,1.21a8.25,8.25,0,0,0-1.19-.42,5.35,5.35,0,0,0-1.34-.17,3.77,3.77,0,0,0-2,.5,3.25,3.25,0,0,0-1.27,1.4,4.94,4.94,0,0,0-.44,2.15,5.54,5.54,0,0,0,.37,2.12,2.93,2.93,0,0,0,1.16,1.41,3.73,3.73,0,0,0,2,.5,6.61,6.61,0,0,0,1.07-.07,8.21,8.21,0,0,0,.81-.17V84.91h-2.23Z"/><path class="cls-10" d="M143.19,89.13V78.87h1.41V89.13Z"/><path class="cls-10" d="M159,84a7.56,7.56,0,0,1-.29,2.15,4.67,4.67,0,0,1-.88,1.67,3.7,3.7,0,0,1-1.44,1.08,5.07,5.07,0,0,1-2,.38,5.17,5.17,0,0,1-2-.38,3.81,3.81,0,0,1-1.45-1.08,4.77,4.77,0,0,1-.86-1.68,7.69,7.69,0,0,1-.28-2.16,6.94,6.94,0,0,1,.51-2.76,3.93,3.93,0,0,1,1.54-1.84,4.77,4.77,0,0,1,2.61-.66,4.6,4.6,0,0,1,2.55.66,4,4,0,0,1,1.55,1.83A6.84,6.84,0,0,1,159,84Zm-7.81,0a6,6,0,0,0,.34,2.15,2.91,2.91,0,0,0,1,1.41,3.55,3.55,0,0,0,3.6,0,2.88,2.88,0,0,0,1-1.41,6.27,6.27,0,0,0,.33-2.15,5.12,5.12,0,0,0-.75-3A2.73,2.73,0,0,0,154.34,80a3.13,3.13,0,0,0-1.8.49,2.92,2.92,0,0,0-1,1.39A6.28,6.28,0,0,0,151.15,84Z"/><path class="cls-10" d="M164.91,83.66h3.62v5a10,10,0,0,1-1.63.42,11.81,11.81,0,0,1-1.88.14,5,5,0,0,1-2.61-.63,4.12,4.12,0,0,1-1.61-1.81,6.63,6.63,0,0,1-.55-2.84,5.92,5.92,0,0,1,.61-2.77,4.31,4.31,0,0,1,1.77-1.84,5.64,5.64,0,0,1,2.81-.65,7.36,7.36,0,0,1,1.58.16,7.18,7.18,0,0,1,1.4.45l-.51,1.21a8.55,8.55,0,0,0-1.18-.42,5.41,5.41,0,0,0-1.34-.17,3.78,3.78,0,0,0-2,.5,3.32,3.32,0,0,0-1.27,1.4A4.94,4.94,0,0,0,161.7,84a5.54,5.54,0,0,0,.37,2.12,3,3,0,0,0,1.16,1.41,3.74,3.74,0,0,0,2,.5,6.48,6.48,0,0,0,1.06-.07,7.15,7.15,0,0,0,.81-.17V84.91h-2.22Z"/><path class="cls-10" d="M172.83,78.87a5.93,5.93,0,0,1,2.09.32,2.48,2.48,0,0,1,1.23,1,3.06,3.06,0,0,1,.41,1.65,2.93,2.93,0,0,1-.28,1.32,2.56,2.56,0,0,1-.74.88,4.11,4.11,0,0,1-1,.55l2.8,4.57h-1.61l-2.43-4.2h-1.85v4.2h-1.4V78.87Zm-.09,1.22h-1.27v3.64h1.37a2.59,2.59,0,0,0,1.73-.47,1.76,1.76,0,0,0,.55-1.4,1.53,1.53,0,0,0-.59-1.36A3.13,3.13,0,0,0,172.74,80.09Z"/><path class="cls-10" d="M186.92,84a7.21,7.21,0,0,1-.3,2.15,4.5,4.5,0,0,1-.87,1.67,3.78,3.78,0,0,1-1.44,1.08,5.1,5.1,0,0,1-2,.38,5.17,5.17,0,0,1-2.05-.38,3.74,3.74,0,0,1-1.45-1.08,4.77,4.77,0,0,1-.86-1.68,7.69,7.69,0,0,1-.28-2.16,6.94,6.94,0,0,1,.5-2.76,4,4,0,0,1,1.55-1.84,4.77,4.77,0,0,1,2.61-.66,4.6,4.6,0,0,1,2.55.66,4,4,0,0,1,1.55,1.83A6.84,6.84,0,0,1,186.92,84Zm-7.81,0a6,6,0,0,0,.34,2.15,2.85,2.85,0,0,0,1,1.41,3.53,3.53,0,0,0,3.59,0,2.83,2.83,0,0,0,1-1.41,6.27,6.27,0,0,0,.33-2.15,5.12,5.12,0,0,0-.75-3A2.74,2.74,0,0,0,182.3,80a3.13,3.13,0,0,0-1.8.49,2.92,2.92,0,0,0-1.05,1.39A6,6,0,0,0,179.11,84Z"/><path class="cls-10" d="M196.24,83.9a6.16,6.16,0,0,1-.62,2.9,4.06,4.06,0,0,1-1.81,1.74,6.41,6.41,0,0,1-2.87.59H188.2V78.87h3.05a5.6,5.6,0,0,1,2.65.58,4,4,0,0,1,1.73,1.69A5.63,5.63,0,0,1,196.24,83.9Zm-1.47,0a4.94,4.94,0,0,0-.42-2.17,2.75,2.75,0,0,0-1.23-1.27,4.26,4.26,0,0,0-2-.42H189.6v7.83h1.3a3.84,3.84,0,0,0,2.9-1A4.07,4.07,0,0,0,194.77,83.94Z"/><path class="cls-10" d="M205.6,89.13h-1.69l-5.19-8.4h-.05c0,.25,0,.53.05.83s0,.61,0,.94l0,1v5.63H197.5V78.87h1.67l5.17,8.36h0c0-.2,0-.46,0-.76s0-.63,0-1,0-.66,0-1V78.87h1.31Z"/><path class="cls-10" d="M207.28,89.13V78.87h1.41V89.13Z"/><path class="cls-10" d="M215.66,80a3.21,3.21,0,0,0-1.38.28,2.72,2.72,0,0,0-1,.8,3.72,3.72,0,0,0-.65,1.27,6.44,6.44,0,0,0,.13,3.83,2.88,2.88,0,0,0,1.09,1.39,3.16,3.16,0,0,0,1.83.49,6.39,6.39,0,0,0,1.25-.12,10.65,10.65,0,0,0,1.2-.32v1.24a6,6,0,0,1-1.19.33,8.61,8.61,0,0,1-1.44.11,4.69,4.69,0,0,1-2.55-.65,4,4,0,0,1-1.52-1.84,7.2,7.2,0,0,1-.5-2.79,6.78,6.78,0,0,1,.32-2.12,4.83,4.83,0,0,1,.92-1.67,4.09,4.09,0,0,1,1.5-1.09,5,5,0,0,1,2.05-.38,6.56,6.56,0,0,1,1.47.16,6.24,6.24,0,0,1,1.32.46l-.53,1.2a9.54,9.54,0,0,0-1.07-.41A4.31,4.31,0,0,0,215.66,80Z"/><path class="cls-10" d="M226.48,89.13H219.4v-1l5.24-8h-5.07V78.87h6.77v1l-5.25,8h5.39Z"/><path class="cls-10" d="M233,89.13h-5.62V78.87H233v1.24h-4.22v3h4v1.22h-4v3.51H233Z"/></g></g></g></svg>