<svg xmlns="http://www.w3.org/2000/svg" viewBox="0 0 384 384"><g id="Warstwa_2" data-name="Warstwa 2"><g id="Warstwa_1-2" data-name="Warstwa 1"><path d="M291,384c-8.69-1.59-17.43-2.88-25.92-5.47a243.58,243.58,0,0,1-60.17-28.12C132.53,304.27,73.46,244.93,29,171.38,16.37,150.46,6.55,128.23,1.87,104,1.17,100.36.62,96.67,0,93V76.5c.64-.55.59-1.33.68-2.06A59.54,59.54,0,0,1,17.87,38.79c7.46-7.53,14.91-15.07,22.07-22.88C46.79,8.43,54.19,2,64.5,0h9.75c11,2,18.48,9,25.52,17.07,15.1,17.35,30.59,34.35,45.87,51.53,12.33,13.86,12.72,30.72,1.13,45.32-5.75,7.24-11.56,14.43-17.3,21.68-6.78,8.55-7.07,17.39-1.27,26.67A289.44,289.44,0,0,0,222.05,256c8.86,5.51,17.82,5.24,26.06-1.24,7.47-5.86,14.84-11.85,22.27-17.77,14.17-11.27,31.21-10.9,44.74,1.12,19.06,16.93,38,34,57.08,50.9,6.35,5.62,9.95,12.64,11.8,20.74v9.75c-1.91,7.61-5.23,14.36-11.07,19.86-9.7,9.14-19.19,18.51-28.78,27.76a56.54,56.54,0,0,1-27.2,14.8c-3.39.76-6.8,1.39-10.2,2.08ZM12,84.89a86.38,86.38,0,0,0,1.87,17.86c4.5,22.58,14.15,43.08,25.57,62.83,19,32.85,42.55,62.28,68.74,89.61,35.09,36.64,73.4,69.3,118.15,93.77,20.38,11.14,41.56,20.23,65,22.62,17.88,1.84,33.93-1.93,47-15.39,8.61-8.88,17.8-17.2,26.63-25.86,9.84-9.66,9.56-23.11-.7-32.31q-28.32-25.42-56.77-50.7c-9.53-8.46-19.88-8.65-29.82-.74-7.53,6-15,12.1-22.58,18-12,9.3-26.29,9.76-39.14,1.76a302.59,302.59,0,0,1-98.06-97.95c-8.26-13.25-7.74-27.5,1.86-39.75,5.7-7.28,11.55-14.45,17.31-21.68,8.49-10.68,8.21-20.85-.85-31L86.45,20.29C76.67,9.34,63.3,9.11,53.11,19.67c-8.42,8.73-16.63,17.67-25.33,26.1C16.65,56.56,12,69.71,12,84.89Z"/><path d="M27.18,85c-.13-9.36,1.76-18.12,8.25-25.32,3.16-3.51,7.54-3.41,9.89.1,1.48,2.2,1.68,4.67,0,6.63-7.86,8.93-7,19.34-5.12,29.83,2.42,13.61,7.63,26.3,13.56,38.71.59,1.24,1.24,2.46,1.76,3.72,1.45,3.45.28,6.87-2.76,8.25a5.93,5.93,0,0,1-7.9-3c-8.6-17-15.67-34.54-17.62-53.72A50.86,50.86,0,0,1,27.18,85Z"/></g></g></svg>