<svg xmlns="http://www.w3.org/2000/svg" viewBox="0 0 349.32 348.34"><g id="Warstwa_2" data-name="Warstwa 2"><g id="Warstwa_1-2" data-name="Warstwa 1"><g id="Warstwa_2-2" data-name="Warstwa 2"><g id="Warstwa_1-2-2" data-name="Warstwa 1-2"><path d="M349.13,281.41c2.65,23.91-22.5,36.32-36.18,52.08C223.63,410.89-13.15,165.12.57,69.69c2.12-24,20.85-38.54,36.26-55C44.61,5.48,55.43-1.43,68,.25c20.44,3.49,47.68,46.44,64.8,62.27,20.46,21.63.14,43.24-14.68,60.82-22.77,27.66,61.12,95.88,84,109.28,17.11,11.52,30.88-8.36,43.87-17.25,12.87-10.23,28.33-9.9,40.61,1,17.3,15.37,34.5,30.87,51.81,46.21C344.18,267.69,347.45,274.06,349.13,281.41Z"/></g></g></g></g></svg>